<svg xmlns="http://www.w3.org/2000/svg" width="47" height="18" fill="#A5AAAF"><path d="M5.332 7.25h2.32c1.322 0 2.486-.461 2.486-1.78 0-1.732-1.247-1.798-2.477-1.798H5.332V7.25Zm34.163 3.896L37.591 4.69l-1.886 6.457h3.79ZM0 18V0h40.54L47 18h-5.555l-.842-2.966H34.56L33.728 18h-5.426l4.862-13.529h-7.117V18h-5.306V4.471h-5.25c.083 1.074-.066 2.194-.583 3.127-.73 1.3-1.978 2.146-3.364 2.465 1.173.227 2.247 1.544 2.8 2.721l2.57 5.205h-5.998L8.07 12.511c-.518-1.016-1.072-1.798-2.265-1.798h-.471V18H0Z"/></svg>